<svg width="20" height="20" viewBox="0 0 20 20" fill="none" xmlns="http://www.w3.org/2000/svg">
<g clip-path="url(#clip0_2675_444)">
<path d="M18.0075 11.3013L18.1985 9.27194C18.3485 7.67809 18.4235 6.88116 18.1508 6.55173C18.0033 6.37353 17.8028 6.26434 17.5883 6.24551C17.1919 6.21069 16.6941 6.77742 15.6984 7.9109C15.1835 8.49708 14.9261 8.79017 14.6388 8.83556C14.4797 8.86071 14.3176 8.83486 14.1706 8.76091C13.9054 8.62744 13.7286 8.2651 13.3749 7.54043L11.5109 3.72072C10.8426 2.35135 10.5085 1.66667 9.99999 1.66667C9.49149 1.66667 9.15736 2.35135 8.4891 3.72072L6.62505 7.54043C6.2714 8.2651 6.09458 8.62744 5.82937 8.76091C5.68242 8.83486 5.52027 8.86071 5.36113 8.83556C5.07392 8.79017 4.81646 8.49708 4.30155 7.9109C3.30589 6.77742 2.80806 6.21069 2.41165 6.24551C2.1972 6.26434 1.99664 6.37353 1.84914 6.55173C1.57649 6.88116 1.65149 7.67809 1.8015 9.27193L1.99249 11.3013C2.3072 14.6451 2.46455 16.3171 3.45007 17.3252C4.43558 18.3333 5.91263 18.3333 8.86672 18.3333H11.1333C14.0874 18.3333 15.5644 18.3333 16.5499 17.3252C17.5354 16.3171 17.6928 14.6451 18.0075 11.3013Z" stroke="currentColor" stroke-width="1.5"/>
<path d="M7.5 15H12.5" stroke="currentColor" stroke-width="1.5" stroke-linecap="round"/>
</g>
<defs>
<clipPath id="clip0_2675_444">
<rect width="20" height="20" fill="white"/>
</clipPath>
</defs>
</svg>
