<svg width="100" height="25" viewBox="0 0 100 25" fill="none" xmlns="http://www.w3.org/2000/svg">
<path d="M94.0517 16.8501C92.3317 16.8501 90.9104 16.3001 89.7876 15.2001C88.6887 14.0751 88.1393 12.6251 88.1393 10.8501C88.1393 9.0751 88.6887 7.6376 89.7876 6.5376C90.8865 5.4126 92.3078 4.8501 94.0517 4.8501C95.8195 4.8501 97.2528 5.4001 98.3516 6.5001C99.4505 7.6001 100 9.0501 100 10.8501C100 12.6251 99.4505 14.0751 98.3516 15.2001C97.2528 16.3001 95.8195 16.8501 94.0517 16.8501Z" fill="#006FEE"/>
<path d="M82.7555 1.0125L73.7973 12.3L82.7555 23.5875V24.6H75.4098L69.4615 16.9125L63.4774 24.6H56.1317V23.5875L65.0899 12.3L56.1317 1.0125V0H63.4774L69.4615 7.6875L75.4098 0H82.7555V1.0125Z" fill="#006FEE"/>
<path d="M28.2671 6.32515V0.400146H52.0243V6.32515H43.3169V25.0001H36.9745V6.32515H28.2671Z" fill="#006FEE"/>
<path d="M20.7114 12.4375C21.7625 13.0125 22.5628 13.75 23.1122 14.65C23.6616 15.55 23.9364 16.6 23.9364 17.8V18.175C23.9364 20.3 23.1361 21.975 21.5356 23.2C19.9589 24.4 17.7731 25 14.9781 25H0V0.400024H14.2615C17.1042 0.400024 19.302 0.975024 20.8547 2.12502C22.4075 3.27502 23.1839 4.91252 23.1839 7.03752V7.41252C23.1839 9.56252 22.3597 11.2375 20.7114 12.4375ZM6.34242 6.10003V10H14.2615C15.1454 10 15.7903 9.86252 16.1965 9.58752C16.6264 9.28752 16.8414 8.83752 16.8414 8.23752V7.86252C16.8414 6.68752 15.9815 6.10003 14.2615 6.10003H6.34242ZM17.4506 17.05C17.4506 15.825 16.5787 15.2125 14.8348 15.2125H6.34242V19.3H14.8348C16.5787 19.3 17.4506 18.675 17.4506 17.425V17.05Z" fill="#006FEE"/>
</svg>
