<svg width="20" height="20" viewBox="0 0 20 20" fill="none" xmlns="http://www.w3.org/2000/svg">
<path d="M16.9264 10.5394L17.3577 8.92948C17.8613 7.05024 18.113 6.11063 17.9234 5.29748C17.7737 4.65543 17.437 4.07219 16.9558 3.62152C16.3464 3.05075 15.4068 2.79898 13.5276 2.29544C11.6483 1.7919 10.7087 1.54013 9.89556 1.72973C9.25351 1.87944 8.67028 2.21617 8.2196 2.69735C7.73092 3.21911 7.47608 3.98294 7.09685 5.3713C7.03316 5.60448 6.96596 5.85527 6.89356 6.12549L6.89353 6.1256L6.46216 7.73548C5.95862 9.61472 5.70685 10.5543 5.89645 11.3675C6.04615 12.0095 6.38289 12.5928 6.86407 13.0434C7.47347 13.6142 8.41308 13.866 10.2923 14.3695L10.2923 14.3695C11.9862 14.8234 12.9166 15.0727 13.6792 14.9786C13.7626 14.9683 13.8441 14.9539 13.9243 14.9352C14.5664 14.7855 15.1496 14.4488 15.6003 13.9676C16.171 13.3582 16.4228 12.4186 16.9264 10.5394Z" stroke="currentColor" stroke-width="1.5"/>
<path d="M13.6792 14.9784C13.5054 15.5105 13.1999 15.9918 12.7891 16.3766C12.1797 16.9473 11.2401 17.1991 9.36087 17.7026C7.48164 18.2062 6.54202 18.4579 5.72888 18.2683C5.08683 18.1186 4.50359 17.7819 4.05292 17.3007C3.48215 16.6913 3.23038 15.7517 2.72684 13.8725L2.29547 12.2626C1.79193 10.3834 1.54016 9.44375 1.72976 8.6306C1.87947 7.98856 2.2162 7.40532 2.69738 6.95464C3.30678 6.38387 4.2464 6.13211 6.12563 5.62857C6.48116 5.5333 6.80306 5.44705 7.09683 5.37109" stroke="currentColor" stroke-width="1.5"/>
<path d="M9.81406 8.33337L13.8387 9.41179" stroke="currentColor" stroke-width="1.5" stroke-linecap="round"/>
<path d="M9.16666 10.748L11.5815 11.3951" stroke="currentColor" stroke-width="1.5" stroke-linecap="round"/>
</svg>
